<svg xmlns="http://www.w3.org/2000/svg" width="66" height="48" fill="none"><g fill="#6CA880" clip-path="url(#a)"><path d="M0 8.854c.483-.916 1.257-1.221 2.288-1.157 1.128.064 2.272.016 3.416.016 1.192 0 1.87.66 1.87 1.864.015 1.286 0 2.572 0 3.857 0 1.318-.661 1.945-1.983 1.96h-.74v4.854h13.438v-3.793h-3.416c-1.45 0-2.03-.562-2.03-2.008V7.68h-.92c-1.111-.032-1.788-.659-1.804-1.735a92.463 92.463 0 0 1 0-4.227C10.135.643 10.812.016 11.892 0h3.996c1.128.017 1.772.676 1.788 1.817.016 1.35.016 2.7 0 4.033 0 1.141-.644 1.784-1.788 1.816-.339.016-.677 0-1.064 0v6.798h3.497V11.2c0-1.51.596-2.105 2.078-2.105h3.159V5.592c0-.305 0-.595.016-.9.048-.514.338-.835.854-.868.548-.032.918.241.999.772.064.401.048.803.048 1.205v3.246h3.722V6.235c0-.466-.016-.948.016-1.414.033-.643.371-1.013.919-1.029.58-.016.967.354.999 1.029.032.996.016 2.008.016 3.02v1.206h3.722V7.344c0-.788-.016-1.575 0-2.379.016-.771.37-1.173.983-1.157.596.016.919.402.935 1.141.016 1.141 0 2.266 0 3.407v.707h3.722V8.051c0-1.045-.016-2.09 0-3.15.016-.723.386-1.109.983-1.109.596 0 .934.386.95 1.125.017 1.141 0 2.266 0 3.407v.755c1.016 0 1.95.048 2.885-.016 1.837-.128 2.449.836 2.352 2.378-.064.98-.016 1.96-.016 3.054h3.545V7.649c-.419 0-.806.016-1.176 0-1.048-.016-1.692-.675-1.692-1.736-.016-1.382-.016-2.78 0-4.162 0-1.076.677-1.735 1.772-1.751 1.338-.016 2.659-.016 3.996 0 1.064.016 1.757.643 1.773 1.687a92.463 92.463 0 0 1 0 4.226c-.016 1.061-.693 1.704-1.74 1.736-.29.016-.597 0-.983 0v6.83c0 1.35-.596 1.944-1.966 1.944h-3.464v3.776H61.15v-4.837c-.338 0-.677.017-1.015 0-1.015-.032-1.708-.675-1.724-1.703a95.001 95.001 0 0 1 0-4.29c.016-1.013.725-1.656 1.74-1.672 1.176-.016 2.368.048 3.545-.016 1.031-.064 1.805.241 2.288 1.157v5.384c-.403.353-.757.835-1.225 1.028-.467.193-1.047.112-1.643.16v2.122c0 .916.016 1.832 0 2.764-.016 1.237-.677 1.896-1.918 1.896H47.711v3.407h1.95c.629 0 1.24-.016 1.87 0 .692.032 1.079.353 1.079.932.016.594-.37.964-1.096.98-1.112.032-2.24 0-3.351.016-.145 0-.29.016-.468.032v3.97h3.706c1.096.015 1.74.642 1.74 1.767.017 2.073 0 4.146 0 6.22v.77c.371 0 .694-.016 1.016 0 1.031.049 1.692.675 1.724 1.704.032 1.43.032 2.86 0 4.29-.032 1.013-.725 1.656-1.74 1.656-1.354.016-2.707.016-4.06 0-1.097-.017-1.741-.675-1.757-1.768a173.827 173.827 0 0 1 0-4.098c0-1.093.66-1.751 1.756-1.784.355-.016.725 0 1.112 0v-6.813h-3.513v3.182c0 .305.016.61-.048.9-.161.77-.806 1.285-1.611 1.301-1.16.016-2.32 0-3.578 0v2.523c0 .579.017 1.157 0 1.736-.016.642-.354 1.012-.902 1.028-.58.032-.983-.337-1.015-1.012-.032-1.173-.016-2.346-.016-3.536v-.69c-.161-.017-.242-.049-.322-.049h-3.352c-.016.257-.032.482-.032.691 0 1.157.016 2.314 0 3.471-.016.74-.355 1.125-.95 1.125-.597 0-.952-.386-.968-1.125-.016-1.125 0-2.266 0-3.407v-.723h-3.722v3.295c0 .273.016.562 0 .835-.032.74-.37 1.125-.967 1.125-.596 0-.95-.386-.966-1.109-.017-1.044 0-2.089 0-3.15v-.98h-3.723v3.6c0 .273 0 .563-.048.836-.08.546-.419.835-.983.82-.548-.033-.886-.354-.902-.9-.033-1.158-.016-2.315-.016-3.472v-.916c-.806 0-1.547-.032-2.288 0-2.627.145-3.062-.53-2.95-2.973.033-.787 0-1.574 0-2.41h-3.512v6.814c.42 0 .806-.017 1.176 0 1.032.048 1.676.707 1.676 1.719.016 1.414.016 2.828 0 4.226-.016 1.013-.677 1.688-1.692 1.704-1.402.016-2.787.016-4.19 0-.95-.016-1.643-.643-1.675-1.591a80.881 80.881 0 0 1 0-4.42c.032-.964.693-1.574 1.644-1.639.322-.016.644 0 1.03 0 .017-.273.033-.498.033-.723v-6.09c0-1.398.596-1.96 1.998-1.977h3.432v-4.017h-3.287c-1.047 0-1.498-.305-1.482-.996.016-.66.45-.932 1.466-.932h3.352v-3.423H4.882c-1.418 0-2.046-.627-2.046-2.025v-4.098c0-.209-.016-.418-.032-.69-1.16.096-2.24.048-2.836-1.126C0 12.454 0 10.654 0 8.855Zm45.697 28.09V11.072H20.303v25.872h25.394ZM1.966 13.402h3.641V9.674H1.966v3.728Zm58.427-3.744v3.744h3.625V9.658h-3.625ZM15.694 5.72V1.976H12.07v3.745h3.625Zm38.221 0V1.976h-3.61v3.745h3.61ZM15.711 42.295h-3.642v3.728h3.641v-3.728Zm34.579 3.728h3.625v-3.728H50.29v3.728Z"/><path d="M0 33.618c.532-1.254 1.644-1.254 2.82-1.173.016-.29.032-.515.032-.724v-4.226c.016-1.221.645-1.864 1.853-1.88 1.37-.016 2.755-.016 4.125 0 .79.016 1.193.45 1.096 1.093-.097.643-.564.82-1.128.82-1.08.015-2.143 0-3.223 0h-.741v4.9c.387 0 .741-.015 1.096 0 .886.033 1.579.627 1.595 1.527.048 1.51.048 3.037 0 4.548-.032.916-.71 1.526-1.644 1.543-1.418.016-2.836 0-4.254.016-.854 0-1.305-.53-1.675-1.19C0 37.138 0 35.37 0 33.619ZM1.95 38.1h3.657v-3.68H1.95v3.68ZM66 38.889c-.419.9-1.128 1.253-2.127 1.205-1.16-.064-2.32-.016-3.48-.016-1.37 0-1.982-.61-1.982-2.009v-3.648c0-1.35.612-1.96 1.95-1.976h.773v-4.901h-1.386c-.838 0-1.676.016-2.514-.017-.693-.015-1.063-.37-1.08-.948-.015-.578.355-.948 1.048-.964 1.434-.016 2.884-.032 4.319 0 .982.032 1.579.723 1.595 1.8.016 1.414 0 2.828 0 4.226v.772c1.176-.032 2.336-.113 2.868 1.189A580.5 580.5 0 0 1 66 38.889Zm-5.607-4.5v3.712h3.625V34.39h-3.625ZM31.985 31.03h7.895c.017-.24.033-.466.033-.69v-4.548c0-.242 0-.483.048-.708.097-.482.435-.723.918-.739.468 0 .774.225.903.675.048.21.064.418.064.627 0 1.8.016 3.6 0 5.383 0 1.286-.66 1.929-1.95 1.929H26.104c-1.289 0-1.95-.643-1.95-1.913V16.937c0-1.285.662-1.912 1.95-1.912h13.794c1.289 0 1.933.643 1.95 1.928.015.82.015 1.623 0 2.443-.017.787-.355 1.189-.968 1.189-.612 0-.95-.402-.966-1.19-.016-.787 0-1.574 0-2.393H26.136v8.05h4.366c1.225 0 1.483.258 1.483 1.447v4.531Zm-1.966-4.017h-3.883v4.001h3.883v-4.001Z"/></g><defs><clipPath id="a"><path fill="#fff" d="M0 0h66v48H0z"/></clipPath></defs></svg>