<svg xmlns="http://www.w3.org/2000/svg" width="60" height="60" fill="none"><g fill="#6CA880" clip-path="url(#a)"><path d="M55.94 4.044H4.06A4.064 4.064 0 0 0 0 8.104V40.57a4.064 4.064 0 0 0 4.059 4.06h8.521a.879.879 0 1 0 0-1.758H4.06a2.304 2.304 0 0 1-2.301-2.302V38.16h56.484v2.412a2.304 2.304 0 0 1-2.301 2.302H16.682a.879.879 0 1 0 0 1.757h8.805l-2.54 6.332h-.92a2.617 2.617 0 0 0-2.613 2.613v1.379c0 .552.45 1.001 1.002 1.001h19.168c.553 0 1.002-.45 1.002-1.001v-1.379a2.617 2.617 0 0 0-2.614-2.613h-.92l-2.54-6.332h21.429c2.238 0 4.06-1.82 4.06-4.059V8.103a4.064 4.064 0 0 0-4.06-4.059ZM38.829 53.576v.621H21.172v-.622c0-.471.384-.855.856-.855h15.944c.472 0 .856.384.856.855Zm-3.67-2.614H24.841l2.54-6.332h5.238l2.54 6.332ZM8.09 9.038v3.095H4.994V9.038H8.09ZM4.994 26.693v-3.095H8.09v3.095H4.994Zm4.854-3.095h3.095v3.095H9.848v-3.095Zm0-1.758v-3.096h3.095v3.096H9.848Zm-1.758 0H4.994v-3.096H8.09v3.096ZM4.994 28.45h7.95V36.4h-7.95V28.45Zm7.95-11.464H9.847V13.89h3.095v3.096Zm-4.854 0H4.994V13.89H8.09v3.096Zm4.853-4.854H9.848V9.038h3.095v3.095Zm42.063 3.378v1.478h-1.478V15.51h1.477Zm-1.478-1.758v-1.478h1.477v1.478h-1.477Zm1.477-3.236h-1.477V9.04h1.477v1.478Zm-1.477 8.23h1.477v1.477h-1.477v-1.478ZM56.763 36.4v-4.725a.879.879 0 1 0-1.758 0V36.4h-1.477V21.982h1.477v5.592a.879.879 0 0 0 1.758 0c0-22.275.001-19.1.001-19.415a.879.879 0 0 0-.879-.879H21.67a.879.879 0 1 0 0 1.758h30.1V36.4H14.7V9.038h2.868a.879.879 0 1 0 0-1.758H4.116a.88.88 0 0 0-.88.879v28.242H1.758V8.103a2.304 2.304 0 0 1 2.301-2.3h51.882a2.304 2.304 0 0 1 2.301 2.3v28.298h-1.479Z"/><path d="M33.236 41.395a.879.879 0 1 0 0-1.758h-6.472a.879.879 0 1 0 0 1.758h6.472ZM43.6 32.37a1.009 1.009 0 0 0 1.69.468l.501-.502 1.245 1.245a1.006 1.006 0 0 0 1.424 0l2.107-2.107a1.008 1.008 0 0 0 0-1.423l-1.245-1.246.502-.502a1.008 1.008 0 0 0-.469-1.688l-6.042-1.507a1.012 1.012 0 0 0-.955.264c-.248.249-.35.614-.265.956l1.508 6.042ZM47.643 28l-.094.093a1.006 1.006 0 0 0 0 1.424l1.245 1.245-1.045 1.045-1.246-1.246a1.008 1.008 0 0 0-1.423 0l-.094.095-.883-3.54 3.54.883ZM17.175 10.516a.997.997 0 0 0-.996.996v3c0 .55.447.997.996.997h.622v3.904h-.622a.997.997 0 0 0-.996.996v3.001c0 .55.447.996.996.996h.622v3.905h-.622a.997.997 0 0 0-.996.996v3c0 .55.447.997.996.997h3.001c.55 0 .996-.447.996-.996v-.622h4.714v.622c0 .55.446.996.996.996h3c.55 0 .997-.447.997-.996v-.622h4.713v.622c0 .55.447.996.996.996h3.001c.55 0 .997-.447.997-.996v-3a.997.997 0 0 0-.997-.997h-.621v-3.904h.621c.55 0 .997-.447.997-.996V20.41a.997.997 0 0 0-.997-.996h-.621v-3.905h.621c.55 0 .997-.447.997-.996v-3.001a.997.997 0 0 0-.997-.996h-3a.997.997 0 0 0-.997.996v.621H30.88v-.621a.997.997 0 0 0-.996-.996h-3.001a.997.997 0 0 0-.996.996v.621h-4.714v-.621a.997.997 0 0 0-.996-.996h-3.001Zm.762 1.757h1.477v1.478h-1.477v-1.478Zm1.477 10.376h-1.477v-1.478h1.477v1.478Zm0 8.898h-1.477v-1.478h1.477v1.478Zm1.758-1.618v-.622a.997.997 0 0 0-.996-.996h-.622v-3.904h.275c.89 2.61 3.144 4.696 6.057 5.473v.049h-4.714Zm5.758-14.42h2.905c3.34.62 5.757 3.3 5.757 6.403 0 3.095-2.406 5.772-5.735 6.4h-2.95c-3.329-.628-5.735-3.305-5.735-6.4 0-3.103 2.416-5.784 5.758-6.403Zm2.191 16.038h-1.478v-1.478h1.478v1.478Zm9.707 0H37.35v-1.478h1.478v1.478ZM37.21 28.31h-.622a.997.997 0 0 0-.996.996v.622H30.88v-.049c2.913-.777 5.166-2.864 6.056-5.473h.275v3.904Zm.14-7.14h1.478v1.478H37.35V21.17Zm0-8.898h1.478v1.478H37.35v-1.478Zm-1.758 1.618v.622c0 .55.447.996.996.996h.622v3.904h-.276c-.89-2.608-3.143-4.693-6.055-5.47v-.052h4.713Zm-7.949-1.618h1.478v1.478h-1.478v-1.478Zm-1.757 1.618v.053c-2.912.776-5.165 2.861-6.056 5.47h-.276v-3.905h.622c.55 0 .996-.447.996-.996v-.622h4.714Z"/></g><defs><clipPath id="a"><path fill="#fff" d="M0 0h60v60H0z"/></clipPath></defs></svg>