<svg xmlns="http://www.w3.org/2000/svg" width="67" height="67" fill="none"><path fill="#6CA880" d="M67 20.334c0-1.675-.653-3.25-1.837-4.435a6.28 6.28 0 0 0-8.692-.168 3.519 3.519 0 0 0-4.22.57 3.519 3.519 0 0 0-.572 4.213l-9.82 9.82V15.647h6.286a.981.981 0 1 0 0-1.963h-6.286V8.669a.981.981 0 1 0-1.963 0v5.015H16.621a.981.981 0 1 0 0 1.963h4.283L9.264 22.36l-.034.021v-6.735h3.465a.981.981 0 1 0 0-1.963H9.23V8.67a.981.981 0 1 0-1.963 0v5.014H.98a.981.981 0 1 0 0 1.963h6.286v35.706H.98a.981.981 0 1 0 0 1.963h6.286v5.014a.981.981 0 1 0 1.963 0v-5.014H33.61a.981.981 0 1 0 0-1.963h-5.389l4.14-2.388a2.296 2.296 0 0 0 2.283.42l5.251-1.871v3.839h-2.36a.981.981 0 1 0 0 1.963h2.36v5.014a.981.981 0 1 0 1.963 0v-5.014h6.286a.981.981 0 1 0 0-1.963h-6.286v-4.539l1.746-.622h.001a.978.978 0 0 0 .094-.04l.021-.01a.962.962 0 0 0 .15-.096.957.957 0 0 0 .096-.083l.003-.001 16.578-16.578a3.515 3.515 0 0 0 4.213-.574 3.519 3.519 0 0 0 .57-4.219A6.222 6.222 0 0 0 67 20.334Zm-3.225-3.047a4.28 4.28 0 0 1 1.262 3.047 4.272 4.272 0 0 1-1.012 2.772l-6.07-6.069a4.316 4.316 0 0 1 5.82.25ZM37.69 46.217l-2.844-2.845 1.674-4.698c.866-.09 1.48.023 1.793.335.374.375.463 1.186.256 2.345l-.002.017a1.014 1.014 0 0 0-.012.198.981.981 0 0 0 1.152.924c1.16-.207 1.971-.118 2.346.256.312.313.425.927.335 1.793l-4.698 1.674Zm5.751-4.855c-.401-.402-.915-.674-1.535-.818l8.753-8.753a.981.981 0 1 0-1.388-1.388l-8.753 8.753c-.143-.62-.416-1.133-.817-1.535-.402-.402-.916-.673-1.537-.816l14.812-14.812 2.352 2.353-2.853 2.853a.982.982 0 0 0 1.388 1.388l2.853-2.853 2.353 2.352-14.812 14.812c-.143-.62-.414-1.135-.816-1.536Zm-3.545-25.715v6.742l-.027-.017-11.638-6.725h11.665ZM9.233 25.809c.001-.718.39-1.388 1.013-1.748l13.315-7.68a2.022 2.022 0 0 1 2.018 0l13.308 7.69c.623.361 1.01 1.031 1.01 1.75v6.476l-4.328 4.327v-7.175c0-1.419-.76-2.74-1.988-3.45l-7.022-4.057a3.993 3.993 0 0 0-3.982-.002l-7.026 4.053a3.994 3.994 0 0 0-1.993 3.448v8.11c0 1.418.76 2.74 1.987 3.449l7.023 4.058a3.983 3.983 0 0 0 3.982.002l7.026-4.053.038-.024-1.936 5.434a2.345 2.345 0 0 0-.136.755l-5.975 3.447c-.624.359-1.398.36-2.02 0L10.24 42.927a2.022 2.022 0 0 1-1.006-1.75V25.81Zm24.373 3.64v8.11c0 .718-.388 1.388-1.011 1.748l-7.026 4.052a2.024 2.024 0 0 1-2.019 0L16.527 39.3a2.024 2.024 0 0 1-1.007-1.749v-8.11c0-.718.388-1.388 1.012-1.748l7.026-4.053a2.019 2.019 0 0 1 2.018.001L32.6 27.7a2.024 2.024 0 0 1 1.007 1.75ZM9.23 51.352v-6.742l.027.017 11.638 6.725H9.23Zm24.756-3.817a.346.346 0 0 1-.375-.085.345.345 0 0 1-.085-.375l.59-1.657 1.527 1.526-1.657.59Zm29.387-20.114a1.551 1.551 0 0 1-2.192 0l-.03-.03-7.481-7.48-.03-.03a1.552 1.552 0 0 1 1.096-2.646c.397 0 .794.15 1.096.453l7.541 7.542a1.552 1.552 0 0 1 0 2.191Z"/></svg>