<svg width="21" height="20" viewBox="0 0 21 20" fill="none" xmlns="http://www.w3.org/2000/svg">
<g id="bxs:phone-call">
<path id="Vector" d="M17.526 9.16567H19.1927C19.1927 4.89067 15.9652 1.6665 11.6844 1.6665V3.33317C15.0694 3.33317 17.526 5.78567 17.526 9.16567Z" fill="#FAB402"/>
<path id="Vector_2" d="M11.6927 6.66654C13.4452 6.66654 14.1927 7.41404 14.1927 9.16654H15.8594C15.8594 6.47904 14.3802 4.99987 11.6927 4.99987V6.66654ZM14.5444 11.2024C14.3842 11.0568 14.1738 10.9792 13.9575 10.9859C13.7413 10.9926 13.536 11.0831 13.3852 11.2382L11.391 13.289C10.911 13.1974 9.94604 12.8965 8.95271 11.9057C7.95938 10.9115 7.65854 9.94404 7.56938 9.46737L9.61854 7.47237C9.77389 7.32165 9.86449 7.11639 9.87118 6.90005C9.87786 6.6837 9.80011 6.47324 9.65438 6.31321L6.57521 2.92737C6.42941 2.76684 6.22677 2.66946 6.01034 2.65592C5.7939 2.64239 5.58071 2.71376 5.41604 2.85487L3.60771 4.40571C3.46363 4.5503 3.37764 4.74275 3.36604 4.94654C3.35354 5.15487 3.11521 10.0899 6.94188 13.9182C10.2802 17.2557 14.4619 17.4999 15.6135 17.4999C15.7819 17.4999 15.8852 17.4949 15.9127 17.4932C16.1165 17.4818 16.3088 17.3954 16.4527 17.2507L18.0027 15.4415C18.1439 15.277 18.2154 15.0639 18.2021 14.8474C18.1887 14.631 18.0915 14.4283 17.931 14.2824L14.5444 11.2024Z" fill="#FAB402"/>
</g>
</svg>
