<svg xmlns="http://www.w3.org/2000/svg" width="29" height="29" fill="none"><path fill="#FAB402" d="M14.624 17.388 26.94 3.871l1.626 1.482L14.737 20.53l-7.538-7.166 1.515-1.594 5.91 5.618ZM27.711 9.52l-1.715 1.889c.248.955.381 1.958.381 2.99 0 6.55-5.328 11.878-11.877 11.878S2.623 20.95 2.623 14.4C2.623 7.85 7.95 2.523 14.5 2.523a11.83 11.83 0 0 1 7.907 3.022l1.483-1.632A13.974 13.974 0 0 0 14.5.323c-3.76 0-7.295 1.464-9.954 4.123A13.985 13.985 0 0 0 .423 14.4c0 3.76 1.465 7.295 4.123 9.954a13.985 13.985 0 0 0 9.954 4.123c3.76 0 7.295-1.465 9.954-4.123a13.985 13.985 0 0 0 4.123-9.954c0-1.692-.298-3.338-.866-4.88Z"/></svg>