<svg xmlns="http://www.w3.org/2000/svg" width="64" height="62" fill="none"><g fill="#6CA880" clip-path="url(#a)"><path d="M62.694 27.837h-23.51V1.265C39.184.567 38.599 0 37.878 0H1.305C.585 0 0 .567 0 1.265v59.47C0 61.433.585 62 1.306 62h34.612c.722 0 1.306-.567 1.306-1.265v-3.796h15.674v3.796c0 .698.585 1.265 1.306 1.265h4.572c.72 0 1.306-.567 1.306-1.265v-3.796h.653c.721 0 1.306-.567 1.306-1.266V34.796h.653c.721 0 1.306-.567 1.306-1.265v-4.429c0-.699-.585-1.265-1.306-1.265ZM18.286 59.469H2.612V48.714h15.674V59.47Zm0-13.285H2.612V2.53h15.674v43.653ZM30.04 59.469h-9.143V2.531h15.673v25.306h-9.795c-.722 0-1.307.566-1.307 1.265v4.429c0 .698.585 1.265 1.306 1.265h1.307v20.877c0 .7.584 1.266 1.306 1.266h.653v2.53Zm4.571 0h-1.959v-2.53h1.96v2.53Zm22.857 0H55.51v-2.53h1.96v2.53Zm1.96-5.06H30.694V45.55h28.735v8.857Zm0-11.389H30.694v-8.224h28.735v8.224Zm1.959-10.755H28.082v-1.898h33.306v1.898Z"/><path d="M43.102 37.327h3.918v2.53h-3.918v-2.53Zm0 10.755h3.918v2.53h-3.918v-2.53ZM23.51 20.245h2.612v5.061H23.51v-5.061Zm-10.449 0h2.612v5.061h-2.612v-5.061ZM8.49 52.51h3.918v2.53H8.49v-2.53Z"/></g><defs><clipPath id="a"><path fill="#fff" d="M0 0h64v62H0z"/></clipPath></defs></svg>