<svg xmlns="http://www.w3.org/2000/svg" width="19" height="20" fill="none"><g fill="#6CA880" clip-path="url(#a)"><path d="M9.503 5.184a4.875 4.875 0 1 0 0 9.75 4.875 4.875 0 1 0 0-9.75Zm0 8.039a3.164 3.164 0 1 1 3.164-3.164 3.163 3.163 0 0 1-3.164 3.164Z"/><path d="M13.417.622C11.67.541 7.34.545 5.59.622c-1.538.072-2.894.444-3.987 1.537C-.224 3.986.01 6.449.01 10.059c0 3.695-.205 6.1 1.594 7.9 1.834 1.833 4.332 1.593 7.9 1.593 3.66 0 4.924.003 6.219-.498 1.76-.683 3.088-2.256 3.218-5.082.082-1.749.077-6.078 0-7.827C18.783 2.81 16.993.787 13.417.622Zm2.767 16.128c-1.198 1.198-2.86 1.09-6.704 1.09-3.958 0-5.545.06-6.704-1.102-1.334-1.327-1.092-3.46-1.092-6.692 0-4.374-.45-7.524 3.94-7.749 1.01-.035 1.306-.047 3.845-.047l.036.024c4.218 0 7.528-.442 7.727 3.947.045 1.001.056 1.302.056 3.837-.001 3.912.073 5.51-1.104 6.692Z"/><path d="M14.571 6.13a1.14 1.14 0 1 0 0-2.278 1.14 1.14 0 0 0 0 2.278Z"/></g><defs><clipPath id="a"><path fill="#fff" d="M0 .562h19v19H0z"/></clipPath></defs></svg>