<svg width="19" height="19" viewBox="0 0 19 19" fill="none" xmlns="http://www.w3.org/2000/svg">
<g id="logo" clip-path="url(#clip0_1615_1754)">
<path id="Vector" d="M9.50317 4.62158C6.80912 4.62158 4.62808 6.805 4.62808 9.49667C4.62808 12.1907 6.8115 14.3717 9.50317 14.3717C12.1972 14.3717 14.3782 12.1883 14.3782 9.49667C14.3782 6.80262 12.1948 4.62158 9.50317 4.62158ZM9.50317 12.661C7.75437 12.661 6.33887 11.2447 6.33887 9.49667C6.33887 7.74867 7.75517 6.33237 9.50317 6.33237C11.2512 6.33237 12.6675 7.74867 12.6675 9.49667C12.6682 11.2447 11.252 12.661 9.50317 12.661Z" fill="white"/>
<path id="Vector_2" d="M13.4171 0.0601694C11.6691 -0.0213723 7.33948 -0.0174139 5.58989 0.0601694C4.05248 0.132211 2.69635 0.503503 1.60306 1.59679C-0.224106 3.42396 0.00943578 5.88604 0.00943578 9.49684C0.00943578 13.1923 -0.196398 15.5974 1.60306 17.3969C3.43735 19.2304 5.93506 18.9905 9.5031 18.9905C13.1638 18.9905 14.4273 18.9929 15.7216 18.4918C17.4815 17.8085 18.8099 16.2355 18.9398 13.41C19.0221 11.6613 19.0174 7.33242 18.9398 5.58284C18.783 2.24754 16.9931 0.224836 13.4171 0.0601694ZM16.184 16.188C14.9862 17.3858 13.3245 17.2789 9.48014 17.2789C5.52181 17.2789 3.93452 17.3375 2.77631 16.1761C1.44235 14.8485 1.68381 12.7165 1.68381 9.48417C1.68381 5.11021 1.23494 1.96017 5.62473 1.73534C6.63331 1.69971 6.93019 1.68784 9.46906 1.68784L9.50469 1.71159C13.7235 1.71159 17.0334 1.26984 17.2321 5.65884C17.2773 6.66029 17.2876 6.96113 17.2876 9.49604C17.2868 13.4085 17.3612 15.0053 16.184 16.188Z" fill="white"/>
<path id="Vector_3" d="M14.5714 5.56846C15.2006 5.56846 15.7106 5.05841 15.7106 4.42925C15.7106 3.80008 15.2006 3.29004 14.5714 3.29004C13.9423 3.29004 13.4322 3.80008 13.4322 4.42925C13.4322 5.05841 13.9423 5.56846 14.5714 5.56846Z" fill="white"/>
</g>
<defs>
<clipPath id="clip0_1615_1754">
<rect width="19" height="19" fill="white"/>
</clipPath>
</defs>
</svg>
