<svg width="43" height="43" viewBox="0 0 43 43" fill="none" xmlns="http://www.w3.org/2000/svg">
<g id="cancel 11" clip-path="url(#clip0_1615_1554)">
<g id="Group">
<g id="Group_2">
<path id="Vector" d="M21.2111 6.20567C29.4832 6.20567 36.2151 12.9377 36.2151 21.2097C36.2144 25.2175 34.6538 28.9854 31.8203 31.8189C28.9868 34.6524 25.2189 36.2129 21.2119 36.2129C17.0751 36.2129 13.3245 34.5299 10.6077 31.8131C7.89095 29.0964 6.20788 25.3458 6.20792 21.2089C6.20792 12.9369 12.9383 6.2065 21.2111 6.20567ZM8.53191 21.2089C8.53191 28.2006 14.2203 33.889 21.212 33.889C24.5977 33.889 27.7821 32.57 30.1767 30.1753C32.5714 27.7807 33.8904 24.5962 33.8912 21.2097C33.8912 14.218 28.202 8.53049 21.2111 8.52966C14.2202 8.53049 8.5319 14.2188 8.53191 21.2089Z" fill="#B6B6B6"/>
</g>
</g>
<g id="Group_3">
<g id="Group_4">
<path id="Vector_2" d="M15.3977 19.9411C21.551 19.9455 20.8169 19.9457 27.025 19.9501C27.6668 19.9509 28.1878 20.4702 28.187 21.1137C28.1862 21.7555 27.666 22.2757 27.0241 22.2749C20.32 22.2701 22.7964 22.271 15.3969 22.2658C15.0763 22.2658 14.7863 22.1352 14.5759 21.9248C14.3655 21.7144 14.2348 21.4227 14.2348 21.1022C14.2358 20.4604 14.7559 19.9403 15.3977 19.9411Z" fill="#B6B6B6"/>
</g>
</g>
</g>
<defs>
<clipPath id="clip0_1615_1554">
<rect width="30" height="30" fill="white" transform="matrix(-0.707107 -0.707107 -0.707107 0.707107 42.4263 21.2129)"/>
</clipPath>
</defs>
</svg>
