<svg xmlns="http://www.w3.org/2000/svg" width="21" height="20" fill="none"><path fill="#FAB402" d="M17.526 9.166h1.667c0-4.275-3.228-7.5-7.509-7.5v1.667c3.385 0 5.842 2.453 5.842 5.833Z"/><path fill="#FAB402" d="M11.693 6.667c1.752 0 2.5.747 2.5 2.5h1.666C15.86 6.479 14.38 5 11.693 5v1.667Zm2.851 4.535a.834.834 0 0 0-1.159.036l-1.994 2.051c-.48-.092-1.445-.393-2.438-1.383-.994-.995-1.294-1.962-1.384-2.439l2.05-1.995a.833.833 0 0 0 .035-1.159L6.575 2.927a.833.833 0 0 0-1.159-.072l-1.808 1.55a.833.833 0 0 0-.242.542c-.012.208-.25 5.143 3.576 8.971 3.338 3.338 7.52 3.582 8.672 3.582.168 0 .271-.005.299-.007a.827.827 0 0 0 .54-.242l1.55-1.81a.834.834 0 0 0-.072-1.159l-3.387-3.08Z"/></svg>