<svg width="43" height="43" viewBox="0 0 43 43" fill="none" xmlns="http://www.w3.org/2000/svg">
<g id="cancel 7" clip-path="url(#clip0_1615_1568)">
<g id="Group">
<g id="Group_2">
<path id="Vector" d="M21.2108 6.73082C29.4829 6.73082 36.2149 13.4628 36.2149 21.7349C36.2141 25.7427 34.6535 29.5105 31.82 32.344C28.9866 35.1775 25.2187 36.7381 21.2117 36.7381C17.0748 36.7381 13.3242 35.0551 10.6075 32.3383C7.89071 29.6215 6.20764 25.8709 6.20768 21.7341C6.20767 13.462 12.938 6.73165 21.2108 6.73082ZM8.53166 21.734C8.53166 28.7258 14.22 34.4141 21.2117 34.4141C24.5974 34.4141 27.7818 33.0951 30.1765 30.7005C32.5712 28.3058 33.8901 25.1214 33.891 21.7349C33.891 14.7431 28.2018 9.05564 21.2109 9.05481C14.22 9.05563 8.53166 14.744 8.53166 21.734Z" fill="#FAB402"/>
</g>
</g>
<g id="Group_3">
<g id="Group_4">
<path id="Vector_2" d="M15.3978 20.466L20.0474 20.4693L20.0441 15.8197C20.0441 15.1787 20.5643 14.6585 21.2053 14.6568C21.8487 14.656 22.3681 15.177 22.3689 15.8188L22.3722 20.4717L27.0251 20.475C27.6669 20.4758 28.1879 20.9951 28.187 21.6386C28.1862 22.2804 27.666 22.8006 27.0242 22.7998L22.3746 22.7965L22.3779 27.4461C22.3787 28.0879 21.8585 28.6081 21.2167 28.6089C20.8954 28.6097 20.6045 28.4783 20.3941 28.2679C20.1837 28.0575 20.0539 27.7666 20.0531 27.4469L20.0498 22.794L15.3969 22.7907C15.0764 22.7907 14.7863 22.6601 14.5759 22.4497C14.3655 22.2393 14.2349 21.9476 14.2349 21.6271C14.2358 20.9853 14.756 20.4652 15.3978 20.466Z" fill="#FAB402"/>
</g>
</g>
</g>
<defs>
<clipPath id="clip0_1615_1568">
<rect width="30" height="30" fill="white" transform="matrix(-0.707107 -0.707107 -0.707107 0.707107 42.4263 21.7402)"/>
</clipPath>
</defs>
</svg>
