<svg xmlns="http://www.w3.org/2000/svg" width="24" height="24" fill="none"><g stroke="#fff" stroke-linecap="round" stroke-linejoin="round" stroke-miterlimit="10" stroke-width="2" clip-path="url(#a)"><path d="M21.892 13.213A7.636 7.636 0 0 0 15.33 1.668a7.636 7.636 0 0 0-7.636 7.637 7.636 7.636 0 0 0 10.916 6.898"/><path d="M19.04 7.697a4.044 4.044 0 0 0-3.71-2.434M9.176 13.992c-2.599 2.038-5.12 4.045-5.641 4.567L2.29 19.804a1.797 1.797 0 1 0 2.541 2.542L6.076 21.1c.509-.508 2.419-2.923 4.393-5.46"/></g><defs><clipPath id="a"><path fill="#fff" d="M.865.77h23v23h-23z"/></clipPath></defs></svg>