<svg xmlns="http://www.w3.org/2000/svg" width="21" height="21" fill="none"><g fill="#6CA880" clip-path="url(#a)"><path d="M19.057 10.687a2.202 2.202 0 0 0-1.916-1.66c-2.198-.233-4.423-.234-6.638-.233-2.215-.001-4.44 0-6.638.234a2.202 2.202 0 0 0-1.916 1.659c-.309 1.278-.312 2.674-.312 3.99 0 1.317 0 2.713.309 3.991.216.898.987 1.56 1.915 1.66 2.198.233 4.423.234 6.638.233 2.216.001 4.44 0 6.639-.234a2.202 2.202 0 0 0 1.915-1.659c.309-1.278.31-2.674.31-3.99 0-1.317.003-2.713-.306-3.991Zm-12.364.99H5.41v6.494H4.218v-6.493h-1.26v-1.064h3.735v1.064Zm3.237 6.494H8.858v-.614c-.426.465-.83.691-1.224.691-.346 0-.583-.133-.69-.418-.059-.17-.095-.44-.095-.837V12.54H7.92v4.146c0 .239 0 .363.01.397.026.158.107.238.25.238.215 0 .44-.157.678-.478V12.54H9.93v5.63ZM14 16.48c0 .52-.037.896-.109 1.134-.143.42-.43.633-.855.633-.382 0-.75-.201-1.108-.623v.546h-1.07v-7.557h1.07v2.468c.346-.406.714-.61 1.108-.61.426 0 .713.213.855.635.072.226.109.598.109 1.131v2.243Zm4.043-.94H15.9v.999c0 .52.18.781.547.781.264 0 .418-.137.479-.41.01-.055.024-.281.024-.69h1.093v.148c0 .33-.013.556-.023.658-.036.226-.12.43-.25.611-.297.409-.736.61-1.296.61s-.987-.192-1.297-.576c-.227-.282-.343-.726-.343-1.324v-1.972c0-.602.103-1.042.33-1.327.31-.385.736-.577 1.284-.577.537 0 .963.192 1.264.577.224.285.331.725.331 1.327v1.165Z"/><path d="M16.438 13.39c-.358 0-.538.26-.538.78v.522h1.071v-.521c0-.52-.179-.781-.533-.781ZM12.463 13.39c-.177 0-.356.08-.535.248v3.432c.179.17.358.251.534.251.31 0 .466-.252.466-.76v-2.403c0-.508-.157-.768-.466-.768ZM13.06 8.275c.396 0 .806-.228 1.237-.699v.621h1.083v-5.69h-1.083v4.349c-.24.323-.467.482-.683.482-.145 0-.23-.081-.254-.241-.013-.034-.013-.16-.013-.4v-4.19h-1.08v4.5c0 .401.037.673.096.845.11.289.35.423.698.423ZM5.524 5.105v3.092h1.2V5.105L8.168.562H6.955l-.82 2.998L5.283.562H4.02c.253.707.516 1.419.77 2.127.384 1.065.625 1.868.734 2.416ZM9.778 8.276c.542 0 .963-.195 1.262-.583.228-.285.337-.733.337-1.338V4.362c0-.608-.11-1.053-.337-1.34-.298-.39-.72-.584-1.262-.584-.54 0-.961.195-1.261.584-.23.287-.339.732-.339 1.34v1.993c0 .605.11 1.053.339 1.338.3.388.721.583 1.26.583Zm-.517-4.12c0-.527.168-.79.517-.79s.516.263.516.79v2.393c0 .527-.167.79-.516.79-.35 0-.517-.263-.517-.79V4.156Z"/></g><defs><clipPath id="a"><path fill="#fff" d="M0 .562h21v20H0z"/></clipPath></defs></svg>