<svg width="21" height="20" viewBox="0 0 21 20" fill="none" xmlns="http://www.w3.org/2000/svg">
<g id="youtube-logotype">
<g id="Group">
<g id="Group_2">
<path id="Vector" d="M19.057 10.1252C18.84 9.22729 18.0688 8.56494 17.1405 8.46634C14.943 8.23255 12.7176 8.23144 10.5031 8.23255C8.28773 8.23144 6.06283 8.23255 3.86457 8.46634C2.93681 8.56516 2.16608 9.22751 1.94931 10.1252C1.64036 11.4038 1.63666 12.7995 1.63666 14.1161C1.63666 15.4326 1.63666 16.8281 1.9456 18.1067C2.16237 19.0044 2.93311 19.6668 3.86132 19.7656C6.05912 19.9996 8.28402 20.0005 10.4992 19.9996C12.7146 20.0007 14.939 19.9996 17.1375 19.7656C18.0653 19.6668 18.8365 19.0044 19.0532 18.1067C19.362 16.8281 19.3636 15.4326 19.3636 14.1161C19.3633 12.7993 19.3657 11.4038 19.057 10.1252ZM6.69299 11.1162H5.40997V17.6091H4.21821V11.1162H2.95858V10.0526H6.69299V11.1162ZM9.92994 17.6093H8.8579V16.9951C8.43201 17.46 8.02765 17.6868 7.63371 17.6868C7.28841 17.6868 7.0508 17.5535 6.94357 17.2684C6.88521 17.0981 6.84908 16.8286 6.84908 16.4311V11.9788H7.92019V16.1243C7.92019 16.3634 7.92019 16.4876 7.92992 16.5211C7.95563 16.6795 8.03691 16.7597 8.1805 16.7597C8.39542 16.7597 8.62006 16.602 8.85767 16.282V11.9788H9.92971L9.92994 17.6093ZM13.9997 15.9194C13.9997 16.4401 13.9629 16.8153 13.8913 17.054C13.7482 17.4728 13.4617 17.6868 13.0356 17.6868C12.6544 17.6868 12.2866 17.4852 11.9283 17.0639V17.6096H10.8572V10.0526H11.9283V12.5205C12.2743 12.1149 12.6416 11.9098 13.0356 11.9098C13.4617 11.9098 13.7484 12.1235 13.8913 12.545C13.9633 12.7715 13.9997 13.1438 13.9997 13.6769V15.9194ZM18.0426 14.98H15.9001V15.9781C15.9001 16.4993 16.0791 16.7595 16.4474 16.7595C16.7112 16.7595 16.8647 16.623 16.9258 16.3504C16.9358 16.295 16.9499 16.0683 16.9499 15.6591H18.0428V15.808C18.0428 16.1369 18.0296 16.3634 18.0199 16.4653C17.984 16.6911 17.8997 16.896 17.7698 17.0765C17.4731 17.4854 17.0335 17.687 16.474 17.687C15.9136 17.687 15.487 17.4949 15.1773 17.1104C14.9501 16.8286 14.8334 16.3848 14.8334 15.7864V13.8143C14.8334 13.2124 14.9369 12.7722 15.1646 12.4876C15.474 12.1023 15.9004 11.9104 16.4476 11.9104C16.9851 11.9104 17.4113 12.1023 17.7114 12.4876C17.9358 12.7722 18.043 13.2124 18.043 13.8143V14.98H18.0426Z" fill="white"/>
<path id="Vector_2" d="M16.4379 12.8286C16.0798 12.8286 15.9004 13.0891 15.9004 13.6096V14.1306H16.9715V13.6096C16.9712 13.0891 16.7922 12.8286 16.4379 12.8286Z" fill="white"/>
<path id="Vector_3" d="M12.4624 12.8286C12.2859 12.8286 12.1071 12.908 11.9281 13.0767V16.5085C12.1069 16.6792 12.2859 16.7599 12.4624 16.7599C12.7713 16.7599 12.9283 16.5085 12.9283 16.0001V13.5968C12.9283 13.0891 12.7713 12.8286 12.4624 12.8286Z" fill="white"/>
<path id="Vector_4" d="M13.0608 7.7137C13.4557 7.7137 13.8665 7.4852 14.2975 7.01495V7.63562H15.3802V1.94531H14.2975V6.29438C14.0576 6.61728 13.8302 6.77697 13.6136 6.77697C13.4687 6.77697 13.3834 6.69536 13.3598 6.53545C13.3466 6.5017 13.3466 6.3762 13.3466 6.13469V1.94531H12.2674V6.4448C12.2674 6.84666 12.3035 7.11862 12.3633 7.29088C12.4721 7.57915 12.7123 7.7137 13.0608 7.7137Z" fill="white"/>
<path id="Vector_5" d="M5.5237 4.54316V7.63567H6.72427V4.54316L8.16847 0H6.95447L6.13533 2.99856L5.28308 0H4.01974C4.27287 0.707787 4.53619 1.4191 4.78932 2.12755C5.17446 3.19243 5.41485 3.99528 5.5237 4.54316Z" fill="white"/>
<path id="Vector_6" d="M9.77756 7.71367C10.3199 7.71367 10.7414 7.51935 11.0404 7.13116C11.2676 6.84641 11.3765 6.39779 11.3765 5.793V3.80044C11.3765 3.19212 11.2679 2.74747 11.0404 2.46007C10.7414 2.07078 10.3202 1.87646 9.77756 1.87646C9.23795 1.87646 8.81669 2.07078 8.51701 2.46007C8.28704 2.74747 8.17819 3.19212 8.17819 3.80044V5.793C8.17819 6.39779 8.28704 6.84641 8.51701 7.13116C8.81646 7.51935 9.23795 7.71367 9.77756 7.71367ZM9.26088 3.59377C9.26088 3.06729 9.42855 2.80481 9.77756 2.80481C10.1266 2.80481 10.2938 3.06706 10.2938 3.59377V5.98732C10.2938 6.5138 10.1266 6.77716 9.77756 6.77716C9.42855 6.77716 9.26088 6.5138 9.26088 5.98732V3.59377Z" fill="white"/>
</g>
</g>
</g>
</svg>
