<svg xmlns="http://www.w3.org/2000/svg" width="20" height="21" fill="none"><path fill="#6CA880" d="M19.26 12.156c.627-5.273-.3-8.603-1.973-10.108v-.001c-2.7-2.572-11.819-2.953-15.05.115C.787 3.662.276 5.865.22 8.592c-.056 2.727-.123 7.836 4.638 9.222h.004l-.004 2.117s-.032.857.515 1.03c.627.203.91-.195 2.86-2.523 3.258.283 5.76-.365 6.044-.46.658-.22 4.382-.713 4.984-5.822ZM8.554 16.95S6.491 19.52 5.85 20.188c-.21.217-.44.197-.436-.234 0-.282.016-3.514.016-3.514-4.037-1.156-3.799-5.507-3.755-7.783.044-2.276.46-4.141 1.689-5.397C6.197.603 14.192 1.197 16.229 3.112c2.49 2.207 1.604 8.444 1.609 8.657-.512 4.264-3.53 4.535-4.084 4.72-.237.078-2.438.644-5.2.46Z"/><path fill="#6CA880" d="M9.694 3.76c-.337 0-.337.525 0 .53 2.614.02 4.766 1.841 4.79 5.183 0 .352.516.348.512-.005-.028-3.6-2.38-5.688-5.302-5.708Z"/><path fill="#6CA880" d="M13.132 8.919c-.008.348.508.365.512.012.043-1.985-1.181-3.62-3.482-3.793-.337-.024-.372.505-.036.53 1.995.15 3.046 1.512 3.006 3.25ZM12.58 11.177c-.431-.25-.871-.094-1.053.152l-.381.492c-.193.25-.555.217-.555.217-2.637-.697-3.342-3.457-3.342-3.457s-.033-.373.209-.574l.476-.394c.238-.189.388-.644.146-1.09-.648-1.17-1.082-1.574-1.304-1.884-.233-.291-.583-.357-.947-.16h-.007c-.757.443-1.586 1.272-1.32 2.125.452.9 1.283 3.766 3.932 5.933 1.245 1.025 3.216 2.075 4.052 2.317l.008.012c.825.275 1.626-.586 2.054-1.366v-.006c.19-.377.127-.734-.15-.967-.492-.48-1.234-1.01-1.817-1.35Z"/><path fill="#6CA880" d="M10.523 7.091c.84.049 1.249.488 1.292 1.39.016.353.528.329.512-.024-.056-1.178-.67-1.834-1.776-1.895-.337-.02-.368.509-.028.529Z"/></svg>