<svg xmlns="http://www.w3.org/2000/svg" width="21" height="21" fill="none"><g fill="#6CA880" clip-path="url(#a)"><path d="m15.319 12.519-.008.065c-1.924-.959-2.126-1.086-2.374-.714-.172.258-.675.844-.826 1.017-.153.17-.305.184-.565.066-.263-.132-1.105-.407-2.103-1.3-.777-.695-1.298-1.549-1.452-1.811-.257-.443.28-.506.768-1.43.087-.183.043-.328-.022-.458-.066-.131-.588-1.418-.807-1.93-.21-.511-.426-.447-.588-.447-.504-.043-.872-.036-1.197.301-1.412 1.553-1.056 3.154.153 4.857 2.374 3.107 3.64 3.68 5.953 4.474.625.199 1.194.17 1.645.106.502-.08 1.546-.63 1.764-1.248.223-.617.223-1.128.158-1.247-.065-.118-.237-.183-.5-.301Z"/><path d="M17.955 3.017C11.227-3.487.093 1.23.088 10.406c0 1.834.48 3.622 1.396 5.202L0 20.999l5.543-1.445C12.46 23.29 20.997 18.329 21 10.41a10.32 10.32 0 0 0-3.058-7.36l.013-.034Zm1.297 7.365c-.005 6.679-7.337 10.85-13.136 7.441l-.315-.187-3.281.853.88-3.19-.21-.327C-.418 9.227 3.728 1.72 10.563 1.72c2.322 0 4.502.905 6.143 2.546a8.565 8.565 0 0 1 2.546 6.116Z"/></g><defs><clipPath id="a"><path fill="#fff" d="M0 0h21v21H0z"/></clipPath></defs></svg>